# xmcd
#
# Track frame offsets:
#	150
#	16781
#	29719
#	44512
#
# Disc length: 769 seconds
#
# Revision: 1
# Processed by: cddbd v1.5.2PL0 Copyright (c) Steve Scherf et al.
# Submitted via: audiograbber 1.83.01
#
DISCID=2c02ff04
DTITLE=Orphan Ann - Orphan Ann EP
DYEAR=2010
DGENRE=Indie
TTITLE0=Four Star Hotel
TTITLE1=Neon Lights
TTITLE2=Every Plane in the Sky
TTITLE3=Silver Rule
EXTD=
EXTT0=
EXTT1=
EXTT2=
EXTT3=
PLAYORDER=
